<?xml version="1.0" encoding="utf-8"?>
<!-- Generator: Adobe Illustrator 28.0.0, SVG Export Plug-In . SVG Version: 6.00 Build 0)  -->
<svg version="1.0" id="Capa_1" xmlns="http://www.w3.org/2000/svg" xmlns:xlink="http://www.w3.org/1999/xlink" x="0px" y="0px"
	 viewBox="0 0 300 300" style="enable-background:new 0 0 300 300;" xml:space="preserve">
<style type="text/css">
	.st0{fill:#F4343F;}
</style>
<g>
	<g>
		<path class="st0" d="M203,35.5H97c-2.7,0-4.8-2.2-4.8-4.8c0-2.7,2.2-4.8,4.8-4.8h106c2.7,0,4.8,2.2,4.8,4.8S205.7,35.5,203,35.5z"
			/>
	</g>
	<g>
		<path class="st0" d="M275.3,290.9H24.7c-13.3,0-24.1-10.8-24.1-24.1V50c0-13.3,10.8-24.1,24.1-24.1h33.7c2.7,0,4.8,2.2,4.8,4.8
			c0,2.7-2.2,4.8-4.8,4.8H24.7c-8,0-14.5,6.5-14.5,14.5v216.9c0,8,6.5,14.5,14.5,14.5h250.6c8,0,14.5-6.5,14.5-14.5V50
			c0-8-6.5-14.5-14.5-14.5h-33.7c-2.7,0-4.8-2.2-4.8-4.8c0-2.7,2.2-4.8,4.8-4.8h33.7c13.3,0,24.1,10.8,24.1,24.1v216.9
			C299.4,280.1,288.6,290.9,275.3,290.9z"/>
	</g>
	<g>
		<path class="st0" d="M275.3,107.8H24.7c-2.7,0-4.8-2.2-4.8-4.8c0-2.7,2.2-4.8,4.8-4.8h250.6c2.7,0,4.8,2.2,4.8,4.8
			C280.1,105.6,278,107.8,275.3,107.8z"/>
	</g>
	<g>
		<path class="st0" d="M77.7,74.1c-2.7,0-4.8-2.2-4.8-4.8V6.6c0-2.7,2.2-4.8,4.8-4.8c2.7,0,4.8,2.2,4.8,4.8v62.6
			C82.5,71.9,80.4,74.1,77.7,74.1z"/>
	</g>
	<g>
		<path class="st0" d="M87.4,74.1H68.1c-2.7,0-4.8-2.2-4.8-4.8c0-2.7,2.2-4.8,4.8-4.8h19.3c2.7,0,4.8,2.2,4.8,4.8S90,74.1,87.4,74.1
			z"/>
	</g>
	<g>
		<path class="st0" d="M222.3,74.1c-2.7,0-4.8-2.2-4.8-4.8V6.6c0-2.7,2.2-4.8,4.8-4.8c2.7,0,4.8,2.2,4.8,4.8v62.6
			C227.1,71.9,225,74.1,222.3,74.1z"/>
	</g>
	<g>
		<path class="st0" d="M231.9,74.1h-19.3c-2.7,0-4.8-2.2-4.8-4.8c0-2.7,2.2-4.8,4.8-4.8h19.3c2.7,0,4.8,2.2,4.8,4.8
			S234.6,74.1,231.9,74.1z"/>
	</g>
	<g>
		<path class="st0" d="M72.9,165.6H44c-2.7,0-4.8-2.2-4.8-4.8s2.2-4.8,4.8-4.8h28.9c2.7,0,4.8,2.2,4.8,4.8S75.6,165.6,72.9,165.6z"
			/>
	</g>
	<g>
		<path class="st0" d="M135.5,165.6h-28.9c-2.7,0-4.8-2.2-4.8-4.8s2.2-4.8,4.8-4.8h28.9c2.7,0,4.8,2.2,4.8,4.8
			S138.2,165.6,135.5,165.6z"/>
	</g>
	<g>
		<path class="st0" d="M198.2,165.6h-28.9c-2.7,0-4.8-2.2-4.8-4.8s2.2-4.8,4.8-4.8h28.9c2.7,0,4.8,2.2,4.8,4.8
			S200.9,165.6,198.2,165.6z"/>
	</g>
	<g>
		<path class="st0" d="M260.8,165.6h-28.9c-2.7,0-4.8-2.2-4.8-4.8s2.2-4.8,4.8-4.8h28.9c2.7,0,4.8,2.2,4.8,4.8
			S263.5,165.6,260.8,165.6z"/>
	</g>
	<g>
		<path class="st0" d="M72.9,237.9H44c-2.7,0-4.8-2.2-4.8-4.8c0-2.7,2.2-4.8,4.8-4.8h28.9c2.7,0,4.8,2.2,4.8,4.8
			C77.7,235.8,75.6,237.9,72.9,237.9z"/>
	</g>
	<g>
		<path class="st0" d="M135.5,237.9h-28.9c-2.7,0-4.8-2.2-4.8-4.8c0-2.7,2.2-4.8,4.8-4.8h28.9c2.7,0,4.8,2.2,4.8,4.8
			C140.4,235.8,138.2,237.9,135.5,237.9z"/>
	</g>
	<g>
		<path class="st0" d="M198.2,237.9h-28.9c-2.7,0-4.8-2.2-4.8-4.8c0-2.7,2.2-4.8,4.8-4.8h28.9c2.7,0,4.8,2.2,4.8,4.8
			C203,235.8,200.9,237.9,198.2,237.9z"/>
	</g>
	<g>
		<path class="st0" d="M260.8,237.9h-28.9c-2.7,0-4.8-2.2-4.8-4.8c0-2.7,2.2-4.8,4.8-4.8h28.9c2.7,0,4.8,2.2,4.8,4.8
			C265.7,235.8,263.5,237.9,260.8,237.9z"/>
	</g>
</g>
</svg>
