<?xml version="1.0" encoding="utf-8"?>
<!-- Generator: Adobe Illustrator 28.0.0, SVG Export Plug-In . SVG Version: 6.00 Build 0)  -->
<svg version="1.0" id="Capa_1" xmlns="http://www.w3.org/2000/svg" xmlns:xlink="http://www.w3.org/1999/xlink" x="0px" y="0px"
	 viewBox="0 0 600 600" style="enable-background:new 0 0 600 600;" xml:space="preserve">
<style type="text/css">
	.st0{fill:#F4343F;}
</style>
<g>
	<polygon class="st0" points="252.6,351.4 169.8,268.6 114.7,323.6 252.6,461.7 473.6,240.5 418.6,185.5 	"/>
	<path class="st0" d="M300.1,0C134.7,0,0.1,134.6,0.1,300c0,165.4,134.6,300,300,300s300-134.6,300-300C600.1,134.6,465.5,0,300.1,0
		z M300.1,570.9C150.7,570.9,29.2,449.4,29.2,300c0-149.4,121.5-270.9,270.9-270.9S571,150.6,571,300
		C571,449.4,449.5,570.9,300.1,570.9z"/>
</g>
</svg>
