<?xml version="1.0" encoding="utf-8"?>
<!-- Generator: Adobe Illustrator 28.0.0, SVG Export Plug-In . SVG Version: 6.00 Build 0)  -->
<svg version="1.0" id="Capa_1" xmlns="http://www.w3.org/2000/svg" xmlns:xlink="http://www.w3.org/1999/xlink" x="0px" y="0px"
	 viewBox="0 0 300 300" style="enable-background:new 0 0 300 300;" xml:space="preserve">
<style type="text/css">
	.st0{fill:#F4343F;}
</style>
<g>
	<g>
		<path class="st0" d="M227.3,300c-2.3,0-4.7-0.8-6.5-2.4c-15.5-13.1-66.1-59.2-66.1-104.4c0-39.2,32.6-71.2,72.7-71.2
			S300,154,300,193.2c0,45.2-50.6,91.3-66.1,104.4C232,299.2,229.7,300,227.3,300z M227.3,131.4c-34.9,0-63.3,27.7-63.3,61.8
			c0,17.5,8.7,37.5,26,59.4c14.3,18.2,30.5,32.5,36.8,37.8l0,0c0.3,0.2,0.7,0.2,1,0c6.3-5.3,22.5-19.6,36.8-37.8
			c17.2-22,26-41.9,26-59.4C290.6,159.2,262.2,131.4,227.3,131.4z"/>
	</g>
	<g>
		<path class="st0" d="M227.3,232c-22.1,0-40-18-40-40s18-40,40-40s40,18,40,40S249.4,232,227.3,232z M227.3,161.3
			c-16.9,0-30.7,13.8-30.7,30.7s13.8,30.7,30.7,30.7S258,208.9,258,192S244.2,161.3,227.3,161.3z"/>
	</g>
	<g>
		<g>
			<path class="st0" d="M135.9,271.9C61,271.9,0,210.9,0,135.9S61,0,135.9,0c32.9,0,64.6,11.9,89.3,33.5
				c24.5,21.4,40.6,50.8,45.2,82.8c0.4,2.6-1.4,4.9-4,5.3c-2.6,0.4-4.9-1.4-5.3-4c-4.3-29.8-19.3-57.2-42.1-77.1
				c-23-20.1-52.6-31.2-83.1-31.2C66.2,9.4,9.4,66.1,9.4,135.9s56.8,126.6,126.6,126.6c10.7,0,21.2-1.3,31.4-3.9
				c2.5-0.6,5.1,0.9,5.7,3.4c0.6,2.5-0.9,5.1-3.4,5.7C158.7,270.4,147.4,271.9,135.9,271.9z"/>
		</g>
		<g>
			<path class="st0" d="M46.1,139.8c-2.7,0-5.4-0.8-7.8-2.4l-14.8-9.8c0,0-0.1-0.1-0.1-0.1c-1.1-0.8-1.9-1.5-2.6-2.4
				c-1.7-2-1.4-4.9,0.6-6.6c2-1.7,4.9-1.4,6.6,0.6c0.2,0.2,0.5,0.5,0.9,0.8l14.7,9.8c1.3,0.8,2.8,1,4.2,0.5c1.4-0.5,2.4-1.6,2.9-3.1
				l5.2-18.1c0.6-2.2,1.9-4.4,3.6-6.1l15.9-15.9c1-1,2.3-1.9,3.6-2.6c0,0,0.1,0,0.1,0l11-5.5c1.9-0.9,2.9-3,2.5-5.1l-1.8-8.9
				c-0.4-2.2-2.4-3.8-4.6-3.8H70.8c-4.8,0-9.3-2.4-11.9-6.5l-0.5-0.8c-0.5-0.8-0.8-1.7-0.8-2.6c0-2.6,2.1-4.7,4.7-4.7
				c1.8,0,3.4,1,4.1,2.5l0.3,0.5c0,0,0,0.1,0.1,0.1c0.9,1.4,2.4,2.2,4,2.2h15.2c6.7,0,12.5,4.8,13.8,11.3l1.8,8.9
				c1.3,6.2-1.8,12.5-7.5,15.3l-10.9,5.4c-0.5,0.3-0.9,0.6-1.3,0.9L66,109.4c-0.6,0.6-1,1.3-1.2,2l-5.2,18.2
				c-1.2,4.3-4.4,7.7-8.6,9.3C49.4,139.5,47.7,139.8,46.1,139.8z"/>
		</g>
		<g>
			<path class="st0" d="M110.7,250.2c-0.9,0-1.7-0.2-2.5-0.7c-2.2-1.4-2.8-4.3-1.5-6.5c0.7-1.1,1.1-2.3,1.1-3.6v-25.3
				c0-2.9,0.8-5.8,2.3-8.3l8.6-14.2c1.4-2.4,1.3-5.3-0.3-7.5l-15.2-21.3c-1.4-2-3.8-3.1-6.3-2.8l-32.8,3.3c-2.7,0.3-5,2.1-5.8,4.6
				l-4.6,13.7c-0.9,2.6-0.1,5.5,2.1,7.4l24.7,21.1c2.1,1.9,3.7,4.1,4.6,6.6l7.3,19.3c0.9,2.4-0.3,5.1-2.7,6c-2.4,0.9-5.1-0.3-6-2.7
				L76.3,220c0,0,0,0,0-0.1c-0.4-1-1-1.9-1.9-2.7l-24.6-21.1c-5-4.3-6.9-11.1-4.9-17.4l4.6-13.7c2-6,7.4-10.3,13.8-11l32.8-3.3
				c5.8-0.6,11.5,2,14.8,6.7l15.1,21.2c3.7,5.2,4,12.2,0.7,17.8l-8.6,14.2c-0.6,1.1-1,2.3-1,3.5v25.3c0,3-0.9,6-2.5,8.6
				C113.8,249.4,112.3,250.2,110.7,250.2z"/>
		</g>
		<g>
			<path class="st0" d="M123.3,40.2c-7.8,0-14.9-4.3-18.4-11.3c-1.2-2.3-0.2-5.1,2.1-6.3c2.3-1.2,5.1-0.2,6.3,2.1
				c1.9,3.8,5.8,6.2,10.1,6.2c0.5,0,1.2-0.1,1.9-0.2l7.5-1.3c3.2-0.5,6-2.4,7.8-5.2l1.7-2.8c1.4-2.2,4.3-2.9,6.5-1.5
				c2.2,1.4,2.9,4.3,1.5,6.5l-1.7,2.8c-3.2,5-8.3,8.5-14.2,9.4l-7.5,1.3C125.5,40.1,124.4,40.2,123.3,40.2z"/>
		</g>
		<g>
			<path class="st0" d="M146.7,166.6c-1.1,0-2.2-0.4-3.1-1.1l-19.8-17c-4.4-3.7-6.4-9.6-5.3-15.3l2.3-11.5c0.9-4.8,4.1-9,8.6-11.2
				l10.9-5.5c2.4-1.2,3.8-3.5,3.7-6.1c-0.1-2.7-1.6-4.9-4-6l-1.3-0.6c-5.4-2.4-9-7.4-9.5-13.3c-0.5-5.9,2.2-11.4,7.1-14.7l24-16
				c0,0,0,0,0.1,0c0.9-0.6,1.9-1.1,2.9-1.5l16.9-6.8c2-0.8,3.5-2.4,4-4.5c0.7-2.5,3.3-4,5.7-3.3c2.5,0.7,4,3.2,3.3,5.7
				c-1.3,4.9-4.9,9-9.6,10.8l-16.9,6.8c-0.4,0.2-0.8,0.4-1.2,0.7l-24,16c-2.1,1.4-3.2,3.7-3,6.1c0.2,2.5,1.7,4.5,4,5.5l1.3,0.6
				c5.8,2.6,9.4,8.1,9.6,14.3c0.1,6.3-3.3,11.9-8.9,14.7l-11,5.5c-1.8,0.9-3.2,2.6-3.5,4.6l-2.3,11.5c-0.5,2.4,0.4,4.8,2.2,6.3
				l19.8,17c2,1.7,2.2,4.6,0.5,6.6C149.3,166.1,148,166.6,146.7,166.6z"/>
		</g>
	</g>
</g>
</svg>
