<?xml version="1.0" encoding="utf-8"?>
<!-- Generator: Adobe Illustrator 28.0.0, SVG Export Plug-In . SVG Version: 6.00 Build 0)  -->
<svg version="1.0" id="Capa_1" xmlns="http://www.w3.org/2000/svg" xmlns:xlink="http://www.w3.org/1999/xlink" x="0px" y="0px"
	 viewBox="0 0 1105.1 297.7" style="enable-background:new 0 0 1105.1 297.7;" xml:space="preserve">
<style type="text/css">
	.st0{fill:#FFFFFF;}
</style>
<g>
	<g>
		<path class="st0" d="M1013.7,77.6c8.4,0,15.1-5.8,15.1-13.1c0-7.3-6.7-13.2-15.1-13.2c-8.4,0-15.2,5.9-15.2,13.2
			C998.5,71.8,1005.3,77.6,1013.7,77.6"/>
		<path class="st0" d="M333.7,141.4c0,0-1.9-5.3,1.1-15.9c3.3-12,18.2-11.8,13.2,2.1C344.7,137.1,333.7,141.4,333.7,141.4
			 M382.1,139.8c-15.1,0.3-12.1,4.5-32.8,6.5c-13,1.3-12-3.1-12-3.1s14.7-5.3,16.9-19.7c3.4-22.3-22.4-22.8-33.6-5.7
			c-4.9,7.6-7,13.6-7.2,18.7c-5.3,4.6-15.1,11.4-27.1,9.4c-4.3-0.7-9.3-3.1-11.4-0.4c-1.6,2.2,0.4,7.9,11.5,9.8
			c17.1,3,26.3-1.6,30.8-6c3.4,4.4,8.6,6.6,15.6,7c10.5,0.8,22.2-0.4,33-5.9c4.6-2.4,7.4-2.1,15.1-3.1c6.2-0.7,7.3-3,7.3-5.1
			C388.3,140.2,385.4,139.8,382.1,139.8"/>
		<path class="st0" d="M155.3,38.3C28.3,50.2-5.1,73.4,23,80.2c5.9,1.5,11.9,3.2,25.3,2.8c11-0.3,8.4-7.3,2.4-7.6
			c-19.9-1.1-13.9-4.6-13.9-4.6s66.7-15.3,127.1-18.9C305.3,43.2,305,72.2,305.1,79c0.6,32.4-78.6,60.4-138.8,67
			c-73.8,8.1-110.8,2-131.1-1.2c-15-2.4-18.2-4.9-18.3-7c-0.2-5.7,8.2-6,18.6-7.7c11-1.8,54.7-3.8,89.9-2.4c1.6,9.1,4,14.9,6.9,14.9
			c2.7,0,5.1-5.5,6.7-14.1c11.1,0.7,25.5,2.1,36.4,2.8c11,0.8,13.9,0.3,13.8-2.4c-0.3-3.7-7.3-4.9-13.8-5.9
			c-15.2-2.4-23.7-3.5-35-4.5c0.6-5.2,0.9-11.1,0.9-17.3c0-22.8-4.1-41.2-9-41.2c-5,0-9,18.5-9,41.2c0,5.7,0.2,11.2,0.7,16.1
			c-20.5-1.3-59.5-2.6-92.2,2.3c-38,5.7-34.1,19.8-15.9,28.2c25.3,11.6,67.7,16,131.4,12.5c72.2-4,130.1-28.1,152.9-44.4
			C359.6,73.4,303.6,24.4,155.3,38.3"/>
		<path class="st0" d="M653.3,75.3C653.5,27.8,573.7,0.6,507.9,0C368.6-1.2,341.6,39.8,354.3,49.5c9.5,7.2,17.5,8.1,19.2,5.4
			c4.5-7.6-9.8-7.6-9.8-12.3c0-6.6,43-24,144.8-22.2c81.9,1.5,127.2,22.1,130,51.9c2.4,26.4-49,53.8-111.6,56.2
			c0.1-4,0.1-8,0.1-12.2c0-32.3-4.5-58.4-10.3-58.4c-5.7,0-10.3,26.1-10.3,58.4c0,4.3,0,8.3,0,12.2c-46.4-1.3-69.6-8-71.6-12.5
			c-0.9-2.4,4-1.7,6.9-2.2c4.6-0.7,5.7-6.7,0.3-7.6c-2-0.4-5.1-0.5-8.9,0c-11.2,1.5-11.6,10.3-6.7,15.2c4.5,4.5,25.2,19.3,80.5,22.5
			c1,18.3,3.5,30.6,9.7,30.6c5.8,0,8.5-12.1,9.6-30.1C580.2,143.5,653.2,119.6,653.3,75.3"/>
		<path class="st0" d="M1102.5,138.5c-5.4-3.8-11.1-6-23.5-5c-18.6,1.2-17.2,10.7-34.6,8.9c-7.6-0.8-10.8-7.8-10.8-15.2
			c0-12-0.1-17.8-0.1-17.8h-21.9c0,0-2.6,14.5-12.3,24.2c-7,7-15.4,10.8-26,9.5c-11.9-1.3-16.8-8.6-16.8-15.8v-24.6h6.6
			c50.3,0,91-1.3,91-6.6c0-5.4-40.7-6.6-91-6.6h-6.6V79.2h-23.2v10.7c-35.6,0.6-61.2,2.7-61.2,6.3c0,3.5,25.5,5.6,61.2,6.3v27.7
			c0,0-9.2-1.3-17.5,3.9c-8.2,5.2-17.7,11.6-34.6,9.5c-15.8-2-21-11.2-24.4-18.9c-1.3-2.8-2-5.2-2.5-7c-1.1-3.9-4.8-2.6-4.7,1.6
			c0.4,9.2-2.3,17.4-15.6,23.6c-10.5,4.8-26.3,3.9-18.1-13c5.7-11.7,23.1-15.3,25.5-14.9c6.3,1,4.5-6.3-7.7-8.6
			c-8.3-1.5-19.6-2.3-33.9,7.8c-2.6,1.8-4.7,4.4-6,7.4c-6.7,3.9-16.9,8.1-29.9,8.2c-24.6,0.3-30.8-19.9-48.2-20.7
			c-12.3-0.6-24.2,9.1-29.5,14.1v-12.5h-22.5v46.1h22.5v-20c4.4-4.5,12.4-11.4,20.6-10.7c8,0.7,11.5,6.4,21.7,10.8
			c12.5,5.4,28.8,5.7,39.3,3.3c10-2.2,18.2-6.6,24-10.6c-0.9,12.7,7.9,27.5,30.1,28.8c21.3,1.2,33-17,33-17s10.2,17.3,34,15.3
			c17.8-1.5,26.9-14.1,34.4-17c7.3-2.9,11.4-2.1,11.4-2.1s4,17,32.4,16.9c27.8,0,39.1-16.7,39.1-16.7s2.9-1.7,4,2.3
			c2.4,8.1,12.3,15.7,25.4,15.4c31.6-0.7,30.9-13.5,47.7-14.5c7.4-0.4,14.6,1.8,18.2,3.4C1105.1,146.1,1106.9,141.7,1102.5,138.5"/>
	</g>
	<g>
		<path class="st0" d="M194.5,227.4h43.7v11.4h-30.8v16.4h26.7v11.4h-26.7V285h30.8v11.4h-43.7V227.4z"/>
		<path class="st0" d="M341.9,227.4h13.8l-22.1,69.1h-13.3l-22.1-69.1H312l15,49.4L341.9,227.4z"/>
		<path class="st0" d="M418,227.4h43.7v11.4h-30.8v16.4h26.7v11.4h-26.7V285h30.8v11.4H418V227.4z"/>
		<path class="st0" d="M540.4,251.3v45.2h-12.9v-69.1h11.6l27,45.2v-45.2h12.9v69.1h-11.6L540.4,251.3z"/>
		<path class="st0" d="M641.9,227.4h49.6v11.5h-18.4v57.5h-12.9v-57.5h-18.4V227.4z"/>
		<path class="st0" d="M802.3,270.1c0,16.2-9.6,27.5-25.6,27.5s-25.6-11.3-25.6-27.5v-16.4c0-16.2,9.6-27.5,25.6-27.5
			s25.6,11.3,25.6,27.5V270.1z M789.4,255.3c0-11.4-4.8-17.6-12.6-17.6s-12.6,6.1-12.6,17.6v13.2c0,11.4,4.8,17.6,12.6,17.6
			s12.6-6.1,12.6-17.6V255.3z"/>
		<path class="st0" d="M892.3,297.7c-13.3,0-23.5-7.5-26.7-20.9l12.8-1.9c2,7.4,6.9,11.2,13.9,11.2c6.9,0,10.9-4,10.9-9
			c0-5-3.3-8.4-10.5-9.7l-5.7-1c-12.9-2.3-19.5-9-19.5-20.1c0-10.6,8-20.1,22.6-20.1c12.7,0,21.9,7.2,24.4,19.3l-12.7,2
			c-1.4-6-5.2-9.8-11.5-9.8c-6.5,0-9.8,3.9-9.8,8.5c0,4.9,3,8,9.8,9.2l5.7,1c14.2,2.5,20.2,9.7,20.2,20.3
			C916.1,288.9,907,297.7,892.3,297.7z"/>
	</g>
</g>
</svg>
