<?xml version="1.0" encoding="utf-8"?>
<!-- Generator: Adobe Illustrator 28.0.0, SVG Export Plug-In . SVG Version: 6.00 Build 0)  -->
<svg version="1.0" id="Capa_1" xmlns="http://www.w3.org/2000/svg" xmlns:xlink="http://www.w3.org/1999/xlink" x="0px" y="0px"
	 viewBox="0 0 300 300" style="enable-background:new 0 0 300 300;" xml:space="preserve">
<style type="text/css">
	.st0{fill:#353535;}
</style>
<g>
	<g>
		<path class="st0" d="M212.7,300H87.3C39.1,300,0,260.9,0,212.7V87.3C0,39.1,39.1,0,87.3,0h125.5C260.9,0,300,39.1,300,87.3v125.5
			C300,260.9,260.9,300,212.7,300z M87.3,26.2c-33.7,0-61.1,27.4-61.1,61.1v125.5c0,33.7,27.4,61.1,61.1,61.1h125.5
			c33.7,0,61.1-27.4,61.1-61.1V87.3c0-33.7-27.4-61.1-61.1-61.1H87.3z"/>
		<path class="st0" d="M150,226.7c-42.3,0-76.7-34.4-76.7-76.7s34.4-76.7,76.7-76.7c42.3,0,76.7,34.4,76.7,76.7
			S192.3,226.7,150,226.7z M150,99.5c-27.8,0-50.5,22.7-50.5,50.5c0,27.8,22.7,50.5,50.5,50.5c27.8,0,50.5-22.7,50.5-50.5
			C200.5,122.2,177.8,99.5,150,99.5z"/>
		
			<ellipse transform="matrix(0.2298 -0.9732 0.9732 0.2298 109.2072 277.8741)" class="st0" cx="230.2" cy="69.9" rx="18.3" ry="18.3"/>
	</g>
</g>
</svg>
