<?xml version="1.0" encoding="utf-8"?>
<!-- Generator: Adobe Illustrator 28.0.0, SVG Export Plug-In . SVG Version: 6.00 Build 0)  -->
<svg version="1.0" id="Capa_1" xmlns="http://www.w3.org/2000/svg" xmlns:xlink="http://www.w3.org/1999/xlink" x="0px" y="0px"
	 viewBox="0 0 300 300" style="enable-background:new 0 0 300 300;" xml:space="preserve">
<style type="text/css">
	.st0{fill:#F4343F;}
</style>
<g>
	<g>
		<path class="st0" d="M150,300C67.3,300,0,232.7,0,150S67.3,0,150,0c82.7,0,150,67.3,150,150S232.7,300,150,300z M150,10
			C72.8,10,10,72.8,10,150s62.8,140,140,140c77.2,0,140-62.8,140-140S227.2,10,150,10z"/>
	</g>
	<g>
		<path class="st0" d="M150,270c-66.2,0-120-53.8-120-120S83.8,30,150,30s120,53.8,120,120S216.2,270,150,270z M150,40
			C89.3,40,40,89.3,40,150s49.3,110,110,110s110-49.3,110-110S210.7,40,150,40z"/>
	</g>
	<g>
		<path class="st0" d="M150,70c-2.8,0-5-2.2-5-5V55c0-2.8,2.2-5,5-5s5,2.2,5,5v10C155,67.8,152.8,70,150,70z"/>
	</g>
	<g>
		<path class="st0" d="M150,250c-2.8,0-5-2.2-5-5v-10c0-2.8,2.2-5,5-5s5,2.2,5,5v10C155,247.8,152.8,250,150,250z"/>
	</g>
	<g>
		<path class="st0" d="M245,155h-10c-2.8,0-5-2.2-5-5s2.2-5,5-5h10c2.8,0,5,2.2,5,5S247.8,155,245,155z"/>
	</g>
	<g>
		<path class="st0" d="M65,155H55c-2.8,0-5-2.2-5-5s2.2-5,5-5h10c2.8,0,5,2.2,5,5S67.8,155,65,155z"/>
	</g>
	<g>
		<path class="st0" d="M150,75"/>
	</g>
	<g>
		<path class="st0" d="M180,185c-1.3,0-2.6-0.5-3.5-1.5l-30-30c-0.9-0.9-1.5-2.2-1.5-3.5V95c0-2.8,2.2-5,5-5s5,2.2,5,5v52.9
			l28.5,28.5c2,2,2,5.1,0,7.1C182.6,184.5,181.3,185,180,185z"/>
	</g>
</g>
</svg>
