<?xml version="1.0" encoding="utf-8"?>
<!-- Generator: Adobe Illustrator 28.0.0, SVG Export Plug-In . SVG Version: 6.00 Build 0)  -->
<svg version="1.0" id="Capa_1" xmlns="http://www.w3.org/2000/svg" xmlns:xlink="http://www.w3.org/1999/xlink" x="0px" y="0px"
	 viewBox="0 0 300 300" style="enable-background:new 0 0 300 300;" xml:space="preserve">
<style type="text/css">
	.st0{fill:#F4343F;}
</style>
<g>
	<g>
		<path class="st0" d="M150,300c-3.2,0-6.5-1.1-9.1-3.3c0,0,0,0,0,0C114.4,274.4,28.1,195.8,28.1,119.3C28.1,53.5,82.8,0,150,0
			s121.9,53.5,121.9,119.3c0,76.5-86.3,155.1-112.8,177.4C156.5,298.9,153.2,300,150,300z M146.9,289.5c1.8,1.5,4.4,1.5,6.1,0
			c11-9.2,39.1-34.1,63.9-65.6c30.2-38.5,45.5-73.6,45.5-104.6C262.5,58.7,212,9.4,150,9.4S37.5,58.7,37.5,119.3
			c0,30.9,15.3,66.1,45.5,104.6C107.8,255.4,136,280.3,146.9,289.5L146.9,289.5z"/>
	</g>
	<g>
		<path class="st0" d="M150,182.8c-36.2,0-65.6-29.4-65.6-65.6s29.4-65.6,65.6-65.6s65.6,29.4,65.6,65.6S186.2,182.8,150,182.8z
			 M150,60.9c-31,0-56.2,25.2-56.2,56.2s25.2,56.2,56.2,56.2s56.2-25.2,56.2-56.2S181,60.9,150,60.9z"/>
	</g>
</g>
</svg>
