<?xml version="1.0" encoding="utf-8"?>
<!-- Generator: Adobe Illustrator 28.0.0, SVG Export Plug-In . SVG Version: 6.00 Build 0)  -->
<svg version="1.0" id="Capa_1" xmlns="http://www.w3.org/2000/svg" xmlns:xlink="http://www.w3.org/1999/xlink" x="0px" y="0px"
	 viewBox="0 0 300 300" style="enable-background:new 0 0 300 300;" xml:space="preserve">
<style type="text/css">
	.st0{fill:#353535;}
</style>
<g>
	<g>
		<g>
			<path class="st0" d="M287.7,90.8c-7.5-17.7-18.2-33.6-31.9-47.3c-13.7-13.7-29.5-24.4-47.3-31.9C190.2,3.9,170.7,0,150.7,0
				c-20.1,0-39.5,3.9-57.9,11.7c-17.7,7.5-33.6,18.2-47.3,31.9C31.9,57.2,21.2,73.1,13.7,90.8C5.9,109.1,2,128.6,2,148.7
				c0,20.1,3.9,39.5,11.7,57.9c2.4,5.6,5.1,11,8.1,16.3L0.7,300l78.9-20.7c4.3,2.3,8.7,4.5,13.2,6.4c18.3,7.8,37.8,11.7,57.9,11.7
				c20.1,0,39.5-3.9,57.9-11.7c17.7-7.5,33.6-18.2,47.3-31.9c13.7-13.7,24.4-29.5,31.9-47.3c7.8-18.3,11.7-37.8,11.7-57.9
				C299.3,128.6,295.4,109.1,287.7,90.8z M150.7,272.1c-17.2,0-33.7-3.6-48.6-10c-6.5-2.8-12.7-6.1-18.6-10l-31,8.1l-15.9,4.2
				l4.3-15.6l8.3-30.2c-3.9-5.7-7.4-11.7-10.3-18c-7.4-15.8-11.5-33.5-11.5-52.1c0-68.1,55.4-123.4,123.4-123.4
				c68.1,0,123.4,55.4,123.4,123.4C274.1,216.7,218.7,272.1,150.7,272.1z"/>
			<path class="st0" d="M223.4,182.3c-7.1-3.8-28.9-14-28.9-14c-6.2-2.9-8-1.4-9.9,1.3L173,184c-1.5,2-4.2,2.7-6.5,1.7
				c-7.5-3.5-20.8-8.3-33.5-21c-8.3-8.3-15.1-17.4-18.4-23.4c-2.4-4.3-1.2-5.4,2.1-8.6c1.3-1.3,4.9-5.6,6.2-7.6
				c2.2-3.6,4.4-5.8,2.1-11.1l-12.3-29.4c-1.1-2.7-3.2-4.5-6.1-4.5c-2.8,0-6.3-0.1-9.2-0.1c-1.9,0-4.6,1-6.2,2.1
				c-2.7,1.8-15.5,12.9-16,31.1c-0.2,7.9,1.6,16.6,5.2,24.6c7.7,17,26.2,37.3,37,47.9c21.7,21.4,50.5,31.3,64.8,33.9
				c12.4,2.3,27.1-1,37.7-12.3c0.8-0.9,1.6-2.1,2.3-3.1c1.8-2.9,3.8-12.2,4-16.8C226.2,185.1,225.3,183.3,223.4,182.3z"/>
		</g>
	</g>
</g>
</svg>
