<?xml version="1.0" encoding="utf-8"?>
<!-- Generator: Adobe Illustrator 28.0.0, SVG Export Plug-In . SVG Version: 6.00 Build 0)  -->
<svg version="1.0" id="Capa_1" xmlns="http://www.w3.org/2000/svg" xmlns:xlink="http://www.w3.org/1999/xlink" x="0px" y="0px"
	 viewBox="0 0 300 300" style="enable-background:new 0 0 300 300;" xml:space="preserve">
<style type="text/css">
	.st0{fill:#353535;}
</style>
<g>
	<g>
		<g>
			<g>
				<path class="st0" d="M296.7,89.7c-1.9-23-17.2-37.8-39.6-40.4c-20.2-2.7-61.8-3.9-107.1-3.6c-45.3-0.3-86.9,0.9-107.1,3.6
					C20.5,51.9,5.3,66.7,3.3,89.7C1.1,109.8,0,129.9,0,150c0,20.1,1.1,40.2,3.3,60.3c1.9,23,17.2,37.8,39.6,40.4
					c20.2,2.7,61.8,3.9,107.1,3.6c45.3,0.3,86.9-0.9,107.1-3.6c22.4-2.6,37.6-17.4,39.6-40.4c2.2-20.1,3.3-40.2,3.3-60.3
					C300,129.9,298.9,109.8,296.7,89.7z M120.1,195v-90l78.6,45L120.1,195z"/>
			</g>
		</g>
	</g>
</g>
</svg>
